# xmcd
#
# Track frame offsets:
#	150
#	12370
#	25669
#	59622
#	76706
#	97623
#	126307
#	141269
#	163125
#	186060
#	199185
#	231412
#	243471
#	258146
#	272123
#	288870
#	309701
#	324897
#
# Disc length: 4535 seconds
#
# Revision: 0
# Processed by: cddbd v1.5.2PL0 Copyright (c) Steve Scherf et al.
# Submitted via: EasyCDDAExtractor 8.2.1.1
#
DISCID=f411b512
DTITLE=Satyr Hill Band - Dead On the Scene Revival
DYEAR=2005
DGENRE=Bluegrass
TTITLE0=Dark Hollow
TTITLE1=Old Train
TTITLE2=Rider
TTITLE3=Me And My Uncle
TTITLE4=Wait A Minute
TTITLE5=Doin' My Time
TTITLE6=Ginseng Sullivan
TTITLE7=Dancing With The Angels
TTITLE8=The Hobo Song
TTITLE9=Panama Red
TTITLE10=Wild Horses
TTITLE11=This Heart Of Mine
TTITLE12=You Plant Your Fields
TTITLE13=My Little Georgia Rose
TTITLE14=Friend Of The Deil
TTITLE15=Good Woman's Love
TTITLE16=Little Maggie
TTITLE17=White Freight Liner
EXTD=
EXTT0=
EXTT1=
EXTT2=
EXTT3=
EXTT4=
EXTT5=
EXTT6=
EXTT7=
EXTT8=
EXTT9=
EXTT10=
EXTT11=
EXTT12=
EXTT13=
EXTT14=
EXTT15=
EXTT16=
EXTT17=
PLAYORDER=
